<?xml version="1.0" encoding="UTF-8" standalone="no"?>
<svg
   id="Layer_1"
   data-name="Layer 1"
   viewBox="0 0 45 45"
   version="1.1"
   sodipodi:docname="pu-logo.svg"
   inkscape:version="1.4 (e7c3feb100, 2024-10-09)"
   xmlns:inkscape="http://www.inkscape.org/namespaces/inkscape"
   xmlns:sodipodi="http://sodipodi.sourceforge.net/DTD/sodipodi-0.dtd"
   xmlns="http://www.w3.org/2000/svg"
   xmlns:svg="http://www.w3.org/2000/svg">
  <sodipodi:namedview
     id="namedview28"
     pagecolor="#ffffff"
     bordercolor="#666666"
     borderopacity="1.0"
     inkscape:showpageshadow="2"
     inkscape:pageopacity="0.0"
     inkscape:pagecheckerboard="0"
     inkscape:deskcolor="#d1d1d1"
     inkscape:zoom="7.8391524"
     inkscape:cx="85.277077"
     inkscape:cy="22.451407"
     inkscape:window-width="1406"
     inkscape:window-height="1408"
     inkscape:window-x="0"
     inkscape:window-y="0"
     inkscape:window-maximized="1"
     inkscape:current-layer="Layer_1" />
  <defs
     id="defs1">
    <style
       id="style1">.cls-1{fill:none;}.cls-2{fill:#231f20;}.cls-3{fill:#fff;}.cls-4{fill:#f48024;}</style>
  </defs>
  <title
     id="title1">pu-logo</title>
  <rect
     class="cls-1"
     x="5.92"
     width="45"
     height="45"
     id="rect1" />
  <path
     class="cls-3"
     d="M15.2,3.31a6.6,6.6,0,0,1-1.92.29A6.47,6.47,0,0,1,7.72.49a6.47,6.47,0,0,1-5.55,3.1A6.63,6.63,0,0,1,.24,3.31,18.16,18.16,0,0,0,.56,8.61H14.87a18.25,18.25,0,0,0,.33-5.31"
     transform="translate(-0.17 13)"
     id="path3" />
  <path
     class="cls-4"
     d="M2.53,13.86a18.67,18.67,0,0,0,1.65,2.46l3.53-3.43,3.54,3.44a18.67,18.67,0,0,0,1.65-2.45l-5.19-5Z"
     transform="translate(-0.17 13)"
     id="path4" />
  <path
     class="cls-4"
     d="M4.18,16.32a19.12,19.12,0,0,0,3.53,3.44,19.13,19.13,0,0,0,3.54-3.43L7.71,12.89Z"
     transform="translate(-0.17 13)"
     id="path5" />
  <path
     class="cls-4"
     d="M2.53,13.86l5.18-5,5.19,5a18.37,18.37,0,0,0,1.92-5l.05-.25H.56a18.52,18.52,0,0,0,2,5.24"
     transform="translate(-0.17 13)"
     id="path6" />
  <path
     class="cls-2"
     d="M7.71,12.71,4.2,16.13a18.61,18.61,0,0,1-1.51-2.25l5-4.83,5,4.84a18.57,18.57,0,0,1-1.5,2.25Z"
     transform="translate(-0.17 13)"
     id="path7" />
  <path
     class="cls-2"
     d="M7.71,9.23l4.88,4.69a18.49,18.49,0,0,1-1.36,2L7.89,12.71l-.17-.17-.17.17L4.21,15.95a18.47,18.47,0,0,1-1.36-2L7.71,9.23m0-.35-5.18,5a18.67,18.67,0,0,0,1.65,2.46l3.53-3.43,3.54,3.44a18.67,18.67,0,0,0,1.65-2.45l-5.19-5Z"
     transform="translate(-0.17 13)"
     id="path8" />
  <path
     class="cls-2"
     d="M15.2,3.31a6.6,6.6,0,0,1-1.92.29A6.47,6.47,0,0,1,7.72.49a6.47,6.47,0,0,1-5.55,3.1A6.63,6.63,0,0,1,.24,3.31,18.16,18.16,0,0,0,.56,8.61H14.87a18.25,18.25,0,0,0,.33-5.31"
     transform="translate(-0.17 13)"
     id="path9" />
  <path
     class="cls-3"
     d="M11.25,5.31V4.7h-.37V4.27l-.39-.11h0V3.8S10.32,4,9.71,4s-.93-.19-1.39-.19A.63.63,0,0,0,7.73,4v.15h0V4a.64.64,0,0,0-.58-.26c-.47,0-.81.19-1.39.19S5,3.8,5,3.8v.38H5l-.42.09V4.7H4.19v.61h.37v1H4.19V6.9h.37v.76a9,9,0,0,0,1.2.1c.69,0,1.08-.1,1.52-.11v.19a1,1,0,0,0,.42.09,1.13,1.13,0,0,0,.43-.09V7.65c.44,0,.84.11,1.53.11a9,9,0,0,0,1.2-.1V6.9h.37V6.29h-.37v-1Z"
     transform="translate(-0.17 13)"
     id="path10" />
  <path
     class="cls-2"
     d="M6,4.48a.11.11,0,0,0-.1.06L5.69,5h0l0,0-.09-.21L5.5,4.64l0-.1a.1.1,0,0,0-.09-.05,0,0,0,0,1,0,0h.29a0,0,0,0,1,0,0s-.08,0-.08,0v0l.14.33.11-.27a.15.15,0,0,0,0-.07s0,0-.08-.05h0v0H6v0"
     transform="translate(-0.17 13)"
     id="path11" />
  <path
     class="cls-2"
     d="M6.58,5H6V5l.08,0a.17.17,0,0,0,0-.08V4.55c0-.06,0-.06-.09-.07h0s0,0,0,0h.47s0,0,0,0v.12h0a.24.24,0,0,0-.08-.09l0,0H6.27s0,0,0,0,0,0,0,.11v.07h.08a.09.09,0,0,0,.05,0,.2.2,0,0,0,0,0h0s0,.07,0,.12,0,.08,0,.11h0s0-.08-.05-.1h-.1v.14a.14.14,0,0,0,0,.06,0,0,0,0,0,0,0h.19a.3.3,0,0,0,.09-.12h0V5s0,0,0,0"
     transform="translate(-0.17 13)"
     id="path12" />
  <path
     class="cls-2"
     d="M7.24,4.63h0l0-.08a.13.13,0,0,0-.1-.05H7v.24s0,.08,0,.17,0,.06.1.07V5H6.82V5c.09,0,.1,0,.1-.05s0-.09,0-.16v-.2a.33.33,0,0,0,0-.07H6.83s-.08.05-.11.12h0V4.47s0,0,0,0h.54v.16h0"
     transform="translate(-0.17 13)"
     id="path13" />
  <path
     class="cls-2"
     d="M6,5.49H6a.29.29,0,0,0,0-.08.13.13,0,0,0-.1-.05H5.76v.24s0,.08,0,.17,0,.06.1.07v0H5.55v0h0c.09,0,.1,0,.1-.05s0-.09,0-.16v-.2a.36.36,0,0,0,0-.07H5.56a.21.21,0,0,0-.11.12h0V5.33s0,0,0,0H6v.16H6"
     transform="translate(-0.17 13)"
     id="path14" />
  <path
     class="cls-2"
     d="M6.6,5.86H6.07a0,0,0,0,1,0,0l.08,0s0,0,0-.08,0-.05,0-.08,0-.09,0-.15,0-.07,0-.09,0-.06-.09-.07h0v0h.47s0,0,0,0v.12h0a.23.23,0,0,0-.08-.1H6.29s0,0,0,0,0,0,0,.11v.07h.08a.11.11,0,0,0,.06,0v0h0s0,.06,0,.12,0,.09,0,.11h0s0-.08-.05-.1h-.1v.14a.22.22,0,0,0,0,.06l0,0h.19a.32.32,0,0,0,.09-.12h0v.15s0,0,0,0"
     transform="translate(-0.17 13)"
     id="path15" />
  <path
     class="cls-2"
     d="M7,5.88a.32.32,0,0,1-.13,0h0l0,0,0,0s0,0,0-.07,0-.07,0-.09h0s0,.08,0,.11A.18.18,0,0,0,7,5.84a.13.13,0,0,0,.09,0,.08.08,0,0,0,0-.07.07.07,0,0,0,0,0L7,5.66l-.14,0a.19.19,0,0,1-.08-.05.17.17,0,0,1,0-.1.16.16,0,0,1,.17-.15.21.21,0,0,1,.13,0l0,0,0,0a.58.58,0,0,0,0,.07s0,.07,0,.08h0s0-.07,0-.1a.13.13,0,0,0-.11,0,.09.09,0,0,0-.1.08.09.09,0,0,0,.07.08l.08,0,.09,0a.15.15,0,0,1,.09.14A.18.18,0,0,1,7,5.88"
     transform="translate(-0.17 13)"
     id="path16" />
  <path
     class="cls-2"
     d="M6.19,6.72H5.66v0l.08,0s0,0,0-.08,0-.05,0-.08,0-.09,0-.16V6.27c0-.06,0-.06-.09-.07v0h.48s0,0,0,0v.13h0a.23.23,0,0,0-.08-.1H5.88s0,0,0,0a.83.83,0,0,0,0,.11v.07H6a.09.09,0,0,0,.06,0,.21.21,0,0,0,0,0h0s0,.06,0,.12,0,.08,0,.11H6s0-.08-.05-.1h-.1v.14a.15.15,0,0,0,0,.06.05.05,0,0,0,0,0H6.1a.3.3,0,0,0,.09-.12h0v.15s0,0,0,0"
     transform="translate(-0.17 13)"
     id="path17" />
  <path
     class="cls-2"
     d="M7,6.2c-.06,0-.1,0-.1.12v.28s0,.09,0,.12h0l-.39-.42v.24s0,0,0,.06a.07.07,0,0,0,0,.06.12.12,0,0,0,.07,0H6.33v0a.13.13,0,0,0,.09,0,.16.16,0,0,0,0-.07V6.4s0,0,0-.08a.12.12,0,0,0,0-.06l0,0-.06,0H6.5l.29.31.07.07V6.35s0-.05,0-.06a.15.15,0,0,0,0-.06s-.06,0-.09,0a0,0,0,0,1,0,0H7"
     transform="translate(-0.17 13)"
     id="path18" />
  <path
     class="cls-2"
     d="M8.8,4.48c-.05,0-.1,0-.1.12v.28S8.7,5,8.7,5h0l-.39-.42v.24s0,0,0,.06a.08.08,0,0,0,0,.06.13.13,0,0,0,.07,0h0a0,0,0,0,1,0,0H8.15a.12.12,0,0,0,.09,0,.16.16,0,0,0,0-.07v-.2s0,0,0-.08a.11.11,0,0,0,0-.06l0,0-.06,0h.17l.29.31.06.08V4.63a.29.29,0,0,0,0-.06.11.11,0,0,0,0-.06s-.06,0-.09,0a0,0,0,0,1,0,0H8.8"
     transform="translate(-0.17 13)"
     id="path19" />
  <path
     class="cls-2"
     d="M9.28,4.54a.13.13,0,0,0-.11-.06.12.12,0,0,0-.1.06A.31.31,0,0,0,9,4.73a.34.34,0,0,0,0,.19A.12.12,0,0,0,9.18,5a.13.13,0,0,0,.12-.07.35.35,0,0,0,0-.18.32.32,0,0,0,0-.2m.09.4a.27.27,0,0,1-.39,0,.28.28,0,0,1-.08-.21A.28.28,0,0,1,9,4.52a.28.28,0,0,1,.19-.08.29.29,0,0,1,.14,0,.29.29,0,0,1,.13.24.31.31,0,0,1-.09.21"
     transform="translate(-0.17 13)"
     id="path20" />
  <path
     class="cls-2"
     d="M10.15,4.48a.11.11,0,0,0-.1.06L9.84,5h0l0,0-.09-.21-.07-.15,0-.1a.11.11,0,0,0-.09-.05,0,0,0,0,1,0,0H9.8s0,0,0,0a0,0,0,0,1,0,0s-.08,0-.08,0a.07.07,0,0,0,0,0l.14.33L10,4.61a.17.17,0,0,0,0-.07s0,0-.08-.05h0v0h.24v0"
     transform="translate(-0.17 13)"
     id="path21" />
  <path
     class="cls-2"
     d="M8.62,5.49h0a.29.29,0,0,0,0-.08.13.13,0,0,0-.1-.05H8.41v.24s0,.08,0,.17,0,.06.1.07v0H8.2v0h0c.09,0,.1,0,.1-.05s0-.09,0-.16v-.2a.35.35,0,0,0,0-.07H8.21a.22.22,0,0,0-.11.12h0V5.33s0,0,0,0h.54v.16h0"
     transform="translate(-0.17 13)"
     id="path22" />
  <path
     class="cls-2"
     d="M8.93,5.43h0l0,.09,0,.1H9l-.08-.19m.35.43H9c.05,0,.07,0,.07,0a.19.19,0,0,0,0-.07l0-.07H8.84a.35.35,0,0,0,0,.1.18.18,0,0,0,0,0s0,0,.08,0v0H8.65a.12.12,0,0,0,.08,0,1,1,0,0,0,.07-.14l.08-.21,0-.08,0-.06H9v0l.1.24.05.13,0,.08s.05,0,.09.05h0"
     transform="translate(-0.17 13)"
     id="path23" />
  <path
     class="cls-2"
     d="M10.13,5.86H9.84v0H9.9s0,0,0-.06V5.37h0l-.12.26,0,.09a1,1,0,0,0,0,.12h0s0,0,0,0l0-.07-.18-.4h0v.36c0,.08,0,.12.1.12H9.33l.08,0s0,0,0-.09V5.44s0-.06,0-.08l-.07,0v0h.25l.16.37,0-.07c0-.06.06-.15.11-.25l0-.06h.21s-.06,0-.08,0,0,0,0,.06v.27c0,.1,0,.11,0,.12h.06"
     transform="translate(-0.17 13)"
     id="path24" />
  <path
     class="cls-2"
     d="M8.61,6.35h0a.25.25,0,0,0,0-.08.12.12,0,0,0-.1-.05H8.4v.24s0,.08,0,.17,0,.06.1.07v0H8.19c.09,0,.1,0,.1-.05s0-.09,0-.16v-.2a.35.35,0,0,0,0-.07H8.2s-.07.05-.11.12h0V6.19s0,0,0,0h.54v.16h0"
     transform="translate(-0.17 13)"
     id="path25" />
  <path
     class="cls-2"
     d="M9.29,6.21a.11.11,0,0,0-.1.06L9,6.73H9s0,0,0,0l-.09-.21L8.8,6.36l0-.1a.1.1,0,0,0-.09-.05h.29s-.08,0-.08,0a.06.06,0,0,0,0,0L9,6.6l.12-.27a.18.18,0,0,0,0-.07s0,0-.08-.05h0v0H9.3v0"
     transform="translate(-0.17 13)"
     id="path26" />
  <path
     class="cls-2"
     d="M10.14,6.72H9.91s0,0,0-.06V6.3s0-.06,0-.07h0l-.12.25,0,.09,0,.12h0l0,0,0-.07-.18-.4h0v.36c0,.08,0,.12.1.12H9.34l.08,0a.13.13,0,0,0,0-.09V6.3s0-.06,0-.08H9.35a0,0,0,0,1,0,0h.25l.16.37,0-.07a2.67,2.67,0,0,1,.11-.25l0-.06h.21s-.06,0-.08,0,0,0,0,.06v.27c0,.1,0,.11,0,.12h.06v0"
     transform="translate(-0.17 13)"
     id="path27" />
  <path
     class="cls-2"
     d="M10.81,7.6a8.46,8.46,0,0,1-1.14.09,14.26,14.26,0,0,1-1.52-.11H8.08v.22a1.09,1.09,0,0,1-.37.07,1,1,0,0,1-.35-.07V7.57H7.28a14.28,14.28,0,0,1-1.52.11A8.49,8.49,0,0,1,4.63,7.6V4.32L5,4.25v3c0,.07.17.23.79.23l.79-.1.6-.09a.58.58,0,0,1,.53.22h.13a.58.58,0,0,1,.53-.22l.6.09.79.1c.63,0,.79-.17.8-.18v-3l.29.08ZM5.08,3.92A1.45,1.45,0,0,0,5.74,4l.79-.1.6-.08a.57.57,0,0,1,.53.22V7.3a.79.79,0,0,0-.53-.17l-.63.09-.76.1c-.55,0-.67-.13-.67-.14s0-3,0-3.27m2.71.14a.58.58,0,0,1,.53-.22l.6.08.79.1a1.59,1.59,0,0,0,.69-.11v3.3a1.87,1.87,0,0,1-.69.1l-.76-.1-.63-.09a.78.78,0,0,0-.53.17Zm2.73,0V3.64l-.11.12s-.14.14-.7.14l-.76-.1-.63-.09a.75.75,0,0,0-.59.23.75.75,0,0,0-.59-.23l-.63.09-.76.1c-.55,0-.67-.13-.67-.13L5,3.62v.5l-.45.1v3.5h.05a9.42,9.42,0,0,0,1.21.1,13.77,13.77,0,0,0,1.46-.1v.16l0,0a1.05,1.05,0,0,0,.45.1,1.16,1.16,0,0,0,.46-.1l0,0V7.72a13.75,13.75,0,0,0,1.46.1,9.38,9.38,0,0,0,1.21-.1h.05V4.22Z"
     transform="translate(-0.17 13)"
     id="path28" />
</svg>
