<svg width="46" height="46" viewBox="0 0 46 46" fill="none" xmlns="http://www.w3.org/2000/svg">
<path d="M18.2184 2.35288C20.6947 0.90008 23.7631 0.900079 26.2394 2.35288L37.5647 8.99726C39.9899 10.4201 41.4797 13.0214 41.4797 15.8331V29.3433C41.4797 32.1551 39.9899 34.7564 37.5647 36.1792L26.2394 42.8236C23.7631 44.2764 20.6947 44.2764 18.2184 42.8236L6.89309 36.1792C4.46789 34.7564 2.97811 32.1551 2.97811 29.3433V15.8331C2.97811 13.0214 4.46789 10.4201 6.89309 8.99727L18.2184 2.35288Z" fill="url(#paint0_linear_2788_133)"/>
<path d="M25.3725 10.2029H24.6082V20.1522H21.1338V14.2164H14.1895V29.3009C14.1895 32.855 16.9617 35.7463 20.3695 35.7463H21.1338V26.3897H24.6082V32.5646H31.5525V16.6482C31.5525 13.0942 28.7802 10.2029 25.3725 10.2029ZM19.6052 34.0866C17.4023 33.7056 15.7181 31.7043 15.7181 29.3009V26.3897H19.6052V34.0866ZM30.0239 30.9704H26.1368V24.7955H15.7181V15.8107H19.6052V21.7464H30.0239V30.9704ZM30.0239 20.1522H26.1368V11.8626C28.3397 12.2435 30.0239 14.2443 30.0239 16.6482V20.1522Z" fill="white"/>
<defs>
<linearGradient id="paint0_linear_2788_133" x1="-3.10516e-07" y1="3.3056" x2="47.1144" y2="7.73226" gradientUnits="userSpaceOnUse">
<stop stop-color="#0082F8"/>
<stop offset="1" stop-color="#1C40F2"/>
</linearGradient>
</defs>
</svg>
